<mxfile host="app.diagrams.net" agent="Mozilla/5.0 (Windows NT 10.0; Win64; x64) AppleWebKit/537.36 (KHTML, like Gecko) Chrome/133.0.0.0 Safari/537.36 Edg/133.0.0.0" version="25.0.3">
  <diagram name="第 1 页" id="at5Mx6w1_0-ntZQzoSur">
    <mxGraphModel dx="2213" dy="747" grid="1" gridSize="10" guides="1" tooltips="1" connect="1" arrows="1" fold="1" page="1" pageScale="1" pageWidth="827" pageHeight="1169" math="0" shadow="0">
      <root>
        <mxCell id="0" />
        <mxCell id="1" parent="0" />
        <mxCell id="dr_A7s-zie3wVS4sfSrT-1" value="" style="shape=image;verticalLabelPosition=bottom;labelBackgroundColor=default;verticalAlign=top;aspect=fixed;imageAspect=0;image=data:image/png,iVBORw0KGgoAAAANSUhEUgAAA48AAAGrCAYAAABgy6IGAAAAAXNSR0IArs4c6QAAAARnQU1BAACxjwv8YQUAAAAJcEhZcwAADsMAAA7DAcdvqGQAAFYASURBVHhe7d0HfBRl/sfxX0IoIVQTQkdARaWqgCh2iki1y4kdsGPv9z/L6Z2ed2fHLqinh6JXFAsqgl3EeiKgeB69kyAtEiAh//09zOCy80xmk2xNPm9f89qd2dndb3Yx2e8+UzJat21XJo6bbrxBpkyZInPnfS9HHXWknHv22XLpuMvkly1bnDV2qp+dLX+66055/Ikn5PTTT5cRw4c7t+z0/vvvS8OGDaVnz57Okl+tXLVKzjzzLFlbUOAsqbpmeXny57v/JD/+979mvtM++8j1N9xofY4/3HG7J6+fr776yvrzV0Xk6zr6vHPN8olPP7Pb67pw4aJd1/OaNTP30Z9Jf86pb70lY8aMkZYtWpj7uvS1vfyKK+TG66/f9fP7/bz6s936+9vl97fesmtdff6Hxz8kz/ztb/LBBx+arAMHDJDf3XyLuY9mvfDCC2X06NHm30hV6eM/9MADzlx07g+t/78FCyp8v8tCr4v+TLGgr0PHjh13vS7hr9teoeXhtyl9DxaEMke+x/oahr//AAAAQCrbVR71g7x+8H3ttdfl+eefky+++KLckrWluHhXiYgsGYnilg+3kA4fPswsd3+GJk2alFt0tHQ+8sjDctttt8WkDEVyS4WWaLeI9j64tymCX3/zHzl/7BhnzZ1uuum3MmjQsbvKo3vfSPra33PPPWadL778Urp03l8uvOACuTF0/5ycHFMwtRDq6zFkyBB58803d5UT/Zn1tbnzrrtk3tx5u9YNKo9agFQ83uOgfz/h5Uvp+n5fbESK/Jkqy33dbIX9/AsuNCVcn2PRosXmfW3dqtWufLby+M9//1t+e9NN1seL9ZcrAAAAQCzsKo/hI1RTXntNpr37blQf0MM/DLujY1parrziCmcNr6qO6IVnjZb+TPoBvrxcNrEYfQwvO255dB/Tb+TRLbNaDCdOnCjZ9eqZnyG8YOlI8bvvTpdLLr5oVzlyR2F1dLJ79+5mfXekTN9TLds6eqfP564b7chjOH0P9PFiMZqnzxM0kuhmDhdemqvy/lRUeSOP7nvgFnSdj/z3Gv7FS/j7H/l+AAAAAKkk07k0H4RPHzXKbHJ65513OUtF/v3vf8ns/3xjnfRDf4cO7c16OgrmevHFyaZ06aaC3Q84cNek87EoY5pVH0/LVORzhE/u8x1yaF9zH/2A7t5W3n37Dxgo83/80bwe540ZG/Ni0qBhQ3n22WfMa6hlVie9rst0c1+XFotrr7lGbv/97ebnmPnpTHl6wlOmrKgHHnjQFEf1xedfmEvXe++9v1vp0/ISXhwj6XN9NvNTM9Kp62kevdT76fW335pqyo0+t2bQIh6L4ujS98P2Xuikt1WUm9PNXVX6+ujr4L5n7uuik25CrLp36y6zPpsp09+dZuZ1ZNelr7v+LPpvcdZnnzlLd5ef38z82wAAAABS0a7yqB+wdfNNHfUKL0u6+aqWKf0AP2zE8ebSnVd9+vSRo48+Wl6f8qopHvrB2f0w7ZYQdwoaXaqMyOcIn2zPp6NV+gHfLVO2++nP0K5dO+cesTd//nw59bSRnpJ0zjnnyqZNm6Ru3Xqm+Cgtr5t/KTLX3wsVe91PceTI00zO996bIX+95x4z6XUtSnvk7mHW1REs9+dR7nMod/nYsM1mtVBqsQkv/XrplrpBxw2Wzl06m4KpI2y2AloV4WUsctLboqH/hvU10Pu4r82JJ57k3Fo14a+P+5ropKVwn733MuvM/m629Dnk0F2vVzSjhzqCqftwulauWCFFRTvfbwAAACCV7CqPuqnpvp06yQuTJplydfKJJzq3lM8dzdNCqR+s9XLChAnmtsiRPZ2PNb/RQ50in083H9SRvGHDhu9WkiIn/RmWLFni3Ct2jgmVbN0MVOmobXhB0tKjB8ZRW7cWm9HZIw4/3NymJVeLuRY3LelXXXmlWU83ZdX3S6f169ebfeXWFa4zt+mmj+7PMnLkSPM4+pzu+6XTU0/tfJ/CaXktWLvWmfuVjrzp5rZaoHTEUUu4bjYbK+GFLHJyv6iw6XPIIeZ10Z9PNxXV10DvoyVONwvVL0JisQmo/rxaSPV9CC+6OgqpX56Ej9jaRjvd0WXNqpmVjo7qvpEAAABAOthVHsNLxTHH9DObT+p+c7179zYjcfqBWYuLXrrz4XRUyh151P32VOTInm0ksKr8Rg91inw+3YxTR/LckR2/+8Zj5FFfm0P7Hmo299RJaYHVMqYFb8Xy5WaZS0uPZnXfE3fSwuveL3y530iXLtPbdH0tf/rFgBYhGz3Yjr7va9Z4y6P++3A34dUSeu+991rLZ0VomdfXW9+H8EIWOeltbvkK32xX6Sag7mthew20xL380mTfnzlaWkS1kGqRdTdB1Umvhxdf23upbJut6uutwjdvBQAAAFLVrvKo3E06dXSkc5cusnrNmnI3W61bt675MK8f6rWYuCOPegATFTmyFzkSGAt+o4c6BT2f3331Z4jlyKMexVbLg+6jOHjwYJk1a5ZZ7o4mallt1bq1WRZJ35MH779vt8Lk3i+8YGmhixS+n95vf3uTKX/uiJyNfgGwfMWKckfq9DH1KKGxOCKou+9q+OseXooj53VyC2y0dD9CZSvEidS8eXMzIqnvm45UavnWzYbDX28deQ7f5xUAAABIJbvKo7tJp446atGZNm1a4IjI1q1bd42O6WaSKrt+/V2nmIgc2dN5Xa4H4YnFQUy0fJR30Ba9rbyykaiRRx2100k3Dd68adOugwuFjyDqqJltc1Eb28ij7XUIH03W0U7357ONPur7Me7SS+WFF15wluzO3Z9Q99GLdn++aLklV1/33/xmpLNU5ODevc2monpb5IhjtLSQ6Wse7/0I3c2Q9WcIL4TukVa1MLqb1Oo0efJks0y/UHDplwx634qUYwAAACBRdp2qw6Uf0HWUyv1Qe8UVl5ujr7ofaPVDspau8NMNKC0XQacZ0PuGn6aisiJPfRANHSl1jz6qP2N55/7TnyXW538s7/XR8qSbZSr3PH/6ulf0Z9T7Xh56nAdD70/k+QP9hD+fFkwtnC59v3QfTS2U9917r1x19dUxez2U+z7qlxXhz2ujZVdPWaJfakS+j/qFRHl0hLm8LxmqQt+78NN2REN/Fv23dckll5r58PNHxjMrAAAAUBWe8oj0Fk2Jd1VkXQAAAAA1G+URAAAAABBotwPmAAAAAABgQ3kEAAAAAASiPAIAAAAAAlEeAQAAAACBKI8AAAAAgECURwAAAABAoIzuB/TiVB0AAAAAgHJl7LHHHpRHAAAAAEC5Mlq3bUd5BAAAAACUi30eAQAAAACBKI8AAAAAgECURwAAAABAIMojAAAAACAQ5REAAAAAEIjyCAAAAAAIRHkEAAAAAARKufLYMKe+cw1+eI2CpdNrxPsZjNcodfHepJ6a8J7w7w4AkoORRwDVXpfO+zvXUs9+++5r8rVonu8sAQAASE0Zrdu2K3OupwT9NnFT0S/OHGx4jYLF+jXyKx9z533vXKu8qmQtrxTFIpufRD9vLN5PzRyerdPee8uPP/3kzCWHFsdatX79Dq+wsFBWrV7jzKUHfh+lnprwnvDvDgCSo1qXx/PHjpWWLVs6cyIrV66UJ596ypmLn3g/L380g1X1NSqvHJWnMsWpKlkjC5HLb3msJPp5Y/VvXvOtWbNWcnNzTWkrLd0hP8yf79yaWFpeN27aaLKEi+f7Fg/8PvJ3y803O9dEbr/jDuda/MX6PZn9n2+cayLdDzjQuZZclfkZw9+PaCXyfQOAdFBtN1vVPxLhBU7pfGX+eFREsp4XCJduBSRRtDjm5zeTHaWl5jXatm2bGf1LNH3O2nVqS5MmTc1oo0vLbCxoSa7ohPigfKQWfT/cKZp5AMDuqmV5dIvap59+utsfAp1X8SpyyXpexJ4Wi8pMyWQrBJFTIiTreaOho3zbt203xU0tWLgw4QUyfFNVvXQLZDJHQRE//N4HAFQn1a486iajSgvbu9Onm+uXXHyxudR5t8i568WK7Xld8XzeWOjYocNuH/T1w22riNHTWNPH1+cJf17NkWrC85U3IfXpvzctirqfoxZ9931LZIEML44unW/UsFFcimPklxu2CfGjXx6GXwIAkO52fYrRD1IvvzRZmuXlOUvSk7vJaGSBc7nLIzctrapkPW9FhX9AdktjdnY9Z8lO+mG2adMmcStF+rj6+JEfojWH3hZeIuOVATWLWxy1KLrCi1MiCqStOCodcUz2gXtUyxYtzJTKGMVDVem/IXeKZh4AsLuMfTrtaw6Y86e77pTHn3iiQt9En3fO2c41u6ef/ZtzLXpV3dHf/YWv3/S6I47hHnn00d3WiZVEPm9VXiMtY+5+VeEfZHXZ+vU/73akx/bt2klOg5yYjk7o8xdtLpJFS5Y4S8ScokA33YvM485X5vljdcCIaMtrVV6jqr6fSp8/mqyxei+jfV1cVX3eqrxGfqXNj27WGusyV15xjMeIY/i/iyDuuuvW/WwuV65aZS6jFav/16IRze/Qvoce6lyz+3TmTOdaYmjmROetynsSfnCcaAUdRCdVPitEvhcVnbdJtX9vABBvmTk5OdL74N7yn2+/rfAHvPJ+4Vfmj0GsaWHTKfJ6vLnPFT6lEv0QG/5BVsucfoCNPEWAFjz9NxGr0Rh9HH288OKo9Hn1+TWHqyIf9msyfT0r+v9tLLjPm4znjqd4jAImujimE/1wXpHJFX49Unkf1lPxg3y65a2MVP+sUBU14f0DgHAZhx52eNnvb71Frr/hRllbUOAsrpjIbxWr8segqt9iu6fJiNzn0S1wA/r3l759+8b89Bm25w0Xy+etymsUOWK0ceMmWbpsmTPnT0cHq3L+uWjv37ZNG2nUqKEzt1NlCkqsRkOiHWGrSolKZFbNWZFRqWhE+xq5kvF+RjP6GF7m3M33K/s70ZWs4liR99hdt7qMPLoiR4Ri9UG+vOLqJ9F5q/KexGPk0ZXszwr63lVkpDFyvjzx+vcGAKkm4+lnnimb9u678sEHHzqLKsf9o1DVbxFj8UHE/eMeWeTcAqei/YNQEYl63qq8RpEf9KP9EKsfpqvyQTra+9s+bCejbLiiLUZVKWKJzOrm1HWrkjmc3/PaHr+yzxuL16i8Ahn5/0Hz/HxzuXpN1U7Yb3ttEjHi6D5vNK+1u266lMeK/A51P9DH8oN8RTNURKzyxvo9ieV5HpP5WcH9G10Ryf73BgCpxpTHBx54UJ5//jlzsAT94HDmmWdV+Rv3yorVH72gPxKxHnl0JeJ5q/IaJevDbDT8Ptwnq2wo2+tlU5Uilsisbk5dtyqZw/k9r+3xK/u8sXqNbP/G/IqjqyoFMvK1SdT/a+7zRvNau+umQ3lMBfEsj7ES6/ckluUxVirzM0a+dxWdBwCIZGpxvOKKy2Xy5Mnmj8Kdd91l5tOd/sLXohZO593luolpPE6bkaznjZZ+mIycUqE4Ks1hywfEiv4b0wLnSuQXJ+HPpQW1vClWtBgGTQAAANHKLCoqkkYNG8qsWbPMgoK1a818/exsM5/OdIRPS5s7uSN+ehnPIpes50XNZivekVM8JOp5YsUtkH7FMXyksaqbrYa/JuHPpY9b3gQAAJCKMlq3bVf2hztulwULFsjEp5+R0eedKx07dpTf3XyLs0piJXITKPcgN1ro3IKXCFV93pq2mVhlxOo1inZkpiqFKZ7vp+a3ZfNbHiuxfl7+zVdeRc/dyGar/nQzRpd+MZiqYv2eVKfNVisqld9nAEgGUx71YCbuPo9fffWVXDruMvllyxZnlcRK9AcRLXJa4l5/4w1nSWJU5Xn5IB0sVq9RdSiPfuJdHv1U5/IY7b+Xiqjq+0R5jB13H7hU3xeuJrwnNenfHQCkElMenespgT8IwXiNgqXTa8T7GSxdXqNULI/xVpP+/dbUkcdUxO9NAEgOymMa4jUKlk6vEe9nsHR5jSiPSAU14T3h3x0AJAflMQ3xGgVLp9eI9zMYr1Hq4r1JPTXhPeHfHQAkR8qVRwAAAABA6vGekR0AAAAAgAiURwAAAABAIMojAAAAACAQ5REAAAAAEIjyCAAAAAAIRHkEAAAAAASiPAIAAAAAAmV0P6AX53kEAAAAAJQro3XbdpTHFJWbmy8rly925gAAAAAgedhsFQAAAAAQiPIIAAAAAAhEeQQAAAAABKI8AgAAAAACUR4BAAAAAIEojwAAAACAQJRHAAAAAEAgyiMAAAAAIBDlEQAAAAAQiPIIAAAAAAhEeQQAAAAABKI8AgAAAAACUR4BAAAAAIEyuh/Qq8y5jngrK5Nt27bKluItUlKy3VnoLzc3X1YuX+zMAQAAAEDyZOyxxx6UxwTJzMyUnJwG0rhJrmzYuD6wQFIeAQAAAKQKNltNoB07dsimTRtlw/pCya6X7SwFAAAAgNRHeUyCoqLNUqdOXWcOAAAAAFIf5TEJdARSMjKcOQAAAABIfZRHAAAAAEAgyiMAAAAAIBDlEQAAAAAQiFN1VEHfvn1l7733lgYNGsi6detk3rx5Mnv2bOfW8rVp11EKC9c4c3acqgMAAABAqmDksZIuv/xy6dWrl6xdu1ZmzJhhzuF49NFHS79+/Zw1AAAAAKD6qJWdnX2bcx1R0oKYn58vDz74oPz0009SUFAg3333nRQXF8vBBx8sCxculKKiImdtu0aNm8qWLeWvU79+jmzetMGZAwAAAIDkYeSxEtq0aSPffvutM/er+fPnm8u2bduaSwAAAACoLiiPlZCTkyOrVq1y5n6lI4/r16+Xli1bOksAAAAAoHqgPFaCHhznwAMPdOZ+1b59e2nSpIm5HQAAAACqE8pjJeh+jrrPY7du3aRu3bpmmc43b97cjEjq/o8AAAAAUJ1wwJxKWLlypdl0tU+fPuaIq3vttZc5UE6dOnVMgdy2bZssX77cWduOA+YAAAAASCeUx0rSI6rqtHXrVsnKypIFCxbIxx9/bOa1VKryCiTlEQAAAEA6oTxWgZ6OY+nSpeYoq0uWLDHF0S2MQQWS8ggAAAAgnVAe4yCaAkl5BAAAAJBOOGBOnMyaNctMAAAAAFAdUB7jiAIJAAAAoLqgPAIAAAAAAlEeAQAAAACBKI8AAAAAgECUxyTIzAy97GVlzhwAAAAApD7KYxLk5DSQbdu2OnMAAAAAkPoojwmkI44NGzaSxk1yZUvxFmcpAAAAAKS+jO4H9GL7yUQpKzMjjlocS0q2Owv95ebmy8rli505AAAAAEiejNZt21EeUxTlEQAAAECqYLNVAAAAAEAgyiMAAAAAIBDlEQAAAAAQiPIIAAAAAAhEeQQAAAAABKI8AgAAAAACUR4BAAAAAIEojwAAAACAQJRHAAAAAECgjNZt25U515FicnPzZeXyxc4cACRHRkbGrgkAANRclMcURnkEkGxaGLOysqRWrVpmAgAANRflMYVRHgEkW2ZmptSpU0eys7PNpc4DAICaifKYwiiPAJJNRxvr1asnDRo0kBUrVjhLAQBATcRXyACAQNGOOEa7eWus11N5eXnONX+xft5o11Pk84p2PUU+r2jXU+TzinY9RT6vaNdT5POKdj2VSvkojwAAAACAQJRHAAAAAECgjO4H9GKfxxTGPo8Akkk3WdF9Hhs1aiTLli1zlvpzN3EpLS01l35ivZ7SzXoKCgqcOTvy+SOfF/nsyGdHPn/k80rXfBwwJ4VxwBwAyaZ/PCiP/shnRz478vkjnxf57Mhnl6h8bLYKAAAAAAhEeQQAAAAABKI8AgAAAAACsc9jCmOfRwDJpvs8hO/z6O4D4ScrK8tclpSUmEs/sV5P5ebmSmFhoTNnRz5/5PMinx357Mjnj3xe6ZqPkUcAAAAAQCBGHlMYI48Aki1y5DFIVY/iFina9RRHy/Minx357Mjnj3xe5LOr7vkYeQQAAAAABKI8AgAAAAACUR4BAAAAAIEojwAAAACAQEkpj61atpSDDjpIBh17rAwcMEAOPPBAadE837k19WRkiDRp0sSZAwAAAICaJ6HlsV69unLcoEFy/PHHS4/u3aRuaD67frYc0KO7nHjiSdLvmKOldu3aztqpITPUHAf0HyCnnnKytGnTxlkKAAAAADVLwspjdnY9OfXkU6RN61by2axZ8tzzf5cpU14zk17/8ssvZZ999pGTTjhB6tSp49wrekcccbiZYkmLbH5+M8nMzJSsrNoybOgQadCggXNrsGFDh0rr0M8bSZcNHTzYmQMAAACA1Jew8zyOGDFcmjRuIv/6979l8+bN0rPnQdKlcxdz23dz5sg333wTur2xnHTSibJk8RJ5d8YMc1u03OL40Ucfm8uqysrKkmHDhkpebq688cabobw9pbi4WN6dPt1ZI1jHDh2kf/9+8sabb8qKFSvNMh29HHzcIJk+fYYsWLjQLPPDeR4BJJue5yn8PI/ueZ/86O9OVVJSYi79xHo9lRv6fV1YWOjM2ZHPH/m8yGdHPjvy+SOfV7rmS8jIY7t27aR1q9by3vvvm+KopapXqIx98cUXZupzcG9p27atrN+wQWbO/Ez26dRJmjZt6tw78fTFGjp0iOTUz5EFCxbIkCGD5eNPPjH5K0LLoZbEoUOGSKtWLU1xHDL4uKiKIwAAAACkklqNGje+zbkeNz26dZP69evLRx/vHBVst+eeUlhQIP/59lspCF22bNlS6mXXkyVLlsjP69ZJjx7dZXNRkaxevdqsb6OblPY86KBQKW21c2rdKlT26kuDnAa7lq1Zs0Z27Njh3CM6+q368OHDpH52fTPKqAf2WbZ0qXz/w/ehx6r4IO3P69fLhg0b5diBA6RTp31Cjxl9cawfKq+bN21w5gAg8XZutp8ldevWlY0bN0pZWVm5k9Lfu6Wlpdbb3SnW6+mUnZ0tRaG/Hbbb3Cnax4v1ejqRzztFu55O5PNO0a6nE/m8U7Tr6UQ+7xTtejqRzztFu55OqZQvISOPdUIfOrQkur4NlcbPPv/cXNejmOp+hT+v+9nMl4ZCrlm7Vho3bmTmE0mLo+6nmF0vW6bPmGEO7rNi+XKZ/t6M0IvlrFQF7hsBAAAAAOkmIeWxpLTEHLU0km6aeoru47hkqcydN9dZGiqQJaWSYVk/3Pbt2+WLL7/cNa1es8aUzvBl0WxD7HKLo46QanEcMniwGfmsanHUTXT1KLJvTp0qU996Wwb072eWAQAAAEA6SUh5XL9+g+Q1a+bM/Wq/ffeV4q1bZfr06bsKmnbGZs3yzOariWIrjitXrpRp06ZVuTiGHzBHDzbx5tS3ZMCA/hRIAAAAAGklIeVx0cKFppjpgXPC/TB/fqhYTZUdYQ2tY8e9zJH9Fi5K3FFGmzfPN4X1/fffNwe0WbFihSmO4bkqo3PnzjJ16tRdR1pVWiB1BLJLl51HmgUAAACAdJCYkccNG8xRS4868kjR8z26evfqZSaXnkPxiMMPlx9++EE2bdrkLI2OnqKjKqfpqF27jpxwwgmycuUqeffdd6tcHNXrb7why5avcOZ+tXTpUnnt9dedOQAAAABIfQkpj+qDDz8wR+w58YQTJd/ZhPWdadPMpPRUFiefdJJs+eUX+fiTT82yRCksXCevTnnVTLEYcQQAAACA6iZh5bG4eKv845//lHXr1snJJ58svxk5UkaMGG6mM0aNkuNHHC+LFi+Sf73yijkYTiJt3brVbFqqE8URAAAAALwyWrdtl/C2pKOMLVq0NCOQeu6QtQUF5pQYerRU/Co3N19WLk/cvp8AEEkPKKb7oTdq1Mjss63z5dFzQqqgo13Hej2Vm5srhYWFzpwd+fyRz4t8duSzI58/8nmla76EjTyG0xG+r7/+Wt56+22Z9u678p///IfiCAAAAAApLCkjj4gOI48Aki1y5DGIOzKpW5WUJ9brqby8PCkoKHDm7Mjnj3xe5LMjnx35/JHPK13zJWXkEQAAAACQXiiPAAAAAIBAlEcAAAAAQCDKIwAAAAAgEOURAAAAABCI8ggAAAAACER5BAAAAAAEythvv/04z2OKqlOvAed5BJBUep4nzvPoj3x25LMjnz/yeZHPjnx2icqX0bptO8pjisrNzac8Akgq/eMRXh71D1h5MjN3btCyY8cOc+knIyPDXJaVlf8nSB9P1wlaT+Xk5EhRUZEzZ0c+f+TzIp8d+ezI5498Xumaj/KYwiiPAJItsjwGSdQ3nzZ8c+xFPjvy2ZHPH/m8yGdX3fPtrKgAAAAAAJSD8ggAAAAACER5BAAAAAAEojwCAAAAAAJRHgEAAAAAgSiPAAAAAIBAlEcAAAAAQCDO85jCOM8jgGTT8zyFn+fRPe+Tn6ysLHNZUlJiLv3Eej2Vm5srhYWFzpwd+fyRz4t8duSzI58/8nmlaz5GHgEAAAAAgRh5TGGMPAJItsiRxyDuyGRpaam59BPr9VReXp4UFBQ4c3bk80c+L/LZkc+OfP7I55Wu+czI42GHHmImF/MVm+97SB/pedCBu15kAAAAAKhu2Gw1BjIyMkTKdjbzWpmZ0qN7N8lvlufcCgAAAADpj81WY0C7Y1ZWbdm+fXuoNDaTffbeS7Zt2yZff/MfKd2xw1mr4thsFUCy6RYVbLbqj3x25LMjnz/yeZHPjnx2icrHyGMMlIXqtxZHtWbtWvnfggXy/fz5pjjqSCQAAAAApDuaTRysWr1GNm8ukoYNG5h9IdmEFQAAAEC6ozzGUU79+lK7dm1p0aKFswQAAAAA0hPlMY50BPL7H36Q2d/NcZYAAAAAQHrigDkJoiOQ7n6R0eKAOQCSTXeYDz9gjrsDvZ+srCxzWVJSYi79xHo9lZubK4WFhc6cHfn8kc+LfHbksyOfP/J5pWs+Rh7jrE6dOnJwr57SvVtXZwkAAAAApB9GHuNMT+PR95BDpKysTD79bJazNDqMPAJItsiRxyBVPQR4pGjXUxxq3Yt8duSzI58/8nmRz66652PkMc70NB6fzPyswsURAAAAAFKJb3k8tE8fGTzo2Kim/sccLY0bNXLuuZNuptmxQ3tzvV69utL30EOkVcuWZj6SLtfbdb1wmsF9DAAAAABA8viWx5mzZsnUt98x03sffCBFRUWyfMWKXcvCp+nvvS8bNm507llxWhrLdpRJcfFWZ0n1clioGOsEAAAAAOkqM3IU8cjDD9ttBFCvH9yrl6zfsGHXKSd0pLB3r57meji/EcRIkes1z28uRb8UmesAAAAAgNSTGTmK+OHHn+waAdRNUQ879FBZtnz5bucqXLFypTlcbGTRjIY+5v777SurVq0yz6P3r107S1q3arWrwOrmqtWJ7vOoEwAAAACkq8zwfRPDacnr1fMgc6qJfTt12m10UiddlpOTY8pl5P6OLvd+WgazaukR++rKQQceIN//MF8WLFxk1tmj6R5SUlpqNo3V8jr/xx/Ncpc+RnUrkwAAAACQbsw+j9nZ2eagN1r03PMR6j6Mui9j+KikFrv16zfstkyLYKdO+5j7RNL1dR3df1J1aN9evv7mP2bk0rVnu3aSXa+e1K2zcwSzQYMGsnrNanNduWXy2AH9fQ+4k+rY5xEAAABAuqt19FFH3abl8cuvvpbMWjuPn7N6zRpzGalp0ybSIKeB2YzVtWnzZlmxYmcZbNiwoTRp0kRWrlolubm5sm3bNvl5/XrJysqS5s2by08//U8KCgvNukpHLNu2bWPOgbhx0ybzWO3atZWff15vrrdt08YcqOe7OXNly5Zi2TdUUn/++WfZujW9DqzTLvQzqqVRnCMtXP36ObJ50wZnDgASLzMz0/wOr1u3rmzcuNGc90mX+U26rl669/WbYr2eTro1THFxsfU2dyKf/0Q+70Q++0Q++0Q+/4l83ilt8+kRVBcuWlSlo6VWlr4Qm0PlcPGSJWYEUkcWa9euLet+Xues8SsdrXzvgw+TkrOq2OcRAAAAQLrLGDxkSFntrNqSm7uHWTBn7jxT1LTIde3S2XzLHEQLqB5QR+/Tvv2e8vU330inffaRzZs3m30bd+7reKAsWrTYPLbffP3s7ND6C3ftD6n7OuomrO58TZObmy8rly925gAg8fRvQL169aRRo0ayLIqtJ9y/GaWlpebST6zXU3l5eVJQUODM2ZHPH/m8yGdHPjvy+SOfV7rmM2ORP6//Wd55d7qZ8vJyzX6PWup0Pnz/Rts+jzqFH4k1nLsvpRbDSHpeR90kVelRV7Vo6uarhYXeUcd0xz6PAAAAANJdphY/d2RPRwD1gDUFBb/ul1hRDXJy5JijjjKn3mjRvLnZl1JHIsPpwXH09BxKn1NP+aH04Dt9Du6966A9eqCdmjrqCAAAAACpJGPs2LFlznVDRwO1xGmB09N0REsPkpPfrJls2rR519FVw+njaaF06aauixcvMafumP/jf81IpytyXZcOm7qb1dYEbLYKINl0sxU2W/VHPjvy2ZHPH/m8yGdHPrtE5cto3bbdbuURsVc3VMK3btvmzEWP8ggg2fSPB+XRH/nsyGdHPn/k8yKfHfnsEpVv5/FXETd6DstePQ+Sngd59/sEAAAAgHRBeYwz3fRXG7t7cCAAAAAASEeUxzjT81J+9vkX5lyaAAAAAJCuKI9x1Dy/mbRu1dJc37q14vs8AgAAAECq4IA5caKbq/bueZC5/sP8H6VwXcXPX8kBcwAkm+4wH37AHN1pvzyZmTu/k9yxY4e59JORkWEu9fy+5dHH03WC1lM5OTmBuwiQzx/5vMhnRz478vkjn1e65qM8xoF+2NL9HPNyc0MfuBpW+lyVlEcAyRZZHoNU9ShukaJdT3G0PC/y2ZHPjnz+yOdFPrvqnm9nRUWVOAU+9AGrrnTv2lU677evmS8oLKx0cQQAAACAVJJ5cK+ectihh0jt2rXNAuYrPn9onz7m+rat26R+/WypU7euKZIAAAAAUF0w8hgjWiZ3lJXJ3O9/kK++/kaKi7c6twAAAABA+mOfxxTGPo8Akk33eWCfR3/ksyOfHfn8kc+LfHbks0tUPkYeAQAAAACBKI8AAAAAgECURwAAAABAIPZ5TGHs8wgg2XSfh/B9Ht19IPxkZWWZy5KSEnPpJ9brqdzcXCksLHTm7Mjnj3xe5LMjnx35/JHPK13zMfIIAAAAAAjEyGMKY+QRQLJFjjwGqepR3CJFu57iaHle5LMjnx35/JHPi3x21T0fI48AAAAAgECURwAAAABAIMojAAAAACAQ5REAAAAAEIjyCAAAAAAIlNH9gF4cbTWFcbRVAMmkR1vjaKv+yGdHPjvy+SOfF/nsyGeXqHycqiOFcaoOAMmmfzwoj/7IZ0c+O/L5I58X+ezIZ5eofJTHFEZ5BJBs+scjvDy6f0z8ZGVlmcuSkhJz6SfW66nc3FwpLCx05uzI5498XuSzI58d+fyRzytd87HPIwAAAAAgECOPKYyRRwDJFjnyGKSqm8NEinY9xWZHXuSzI58d+fyRz4t8dtU9HyOPAAAAAIBAlEcAAAAAQCDKIwAAAAAgEOURAAAAABCI8ggAAAAACER5BAAAAAAEojwCAAAAAAJxnscUxnkeASSbnucp/DyP7nmf/GRlZZnLkpISc+kn1uup3NxcKSwsdObsyOePfF7ksyOfHfn8kc8rXfMx8ggAAAAACMTIYwpj5BFAskWOPAZxRyZLS0vNpZ9Yr6fy8vKkoKDAmbMjnz/yeZHPjnx25PNHPq90zcfIIwAAAAAgEOURAAAAABCI8ggAAAAACER5BAAAAAAEojwCAAAAAAJRHgEAAAAAgSiPAAAAAIBAlEcAAAAAQKCM1m3blTnXkWJyc/Nl5fLFzhwAJJ6eJLhevXrSqFEjWbZsmTlRcXkyM3d+J7ljxw5z6ScjI8NclpWV/ydIH0/XCVpP5eTkSFFRkTNnRz5/5PMinx357Mjnj3xe6ZqP8pjCKI8Aki2yPAbR9VVpaam59BPr9ZQW24KCAmfOjnz+yOdFPjvy2ZHPH/m80jXfzooKAAAAAEA5KI8AAAAAgECURwAAAABAIMojAAAAACAQ5REAAAAAEIjyCAAAAAAIRHkEAAAAAATiPI8pjPM8Akg2Pc9T+Hke3fM++cnKyjKXJSUl5tJPrNdTubm5UlhY6MzZkc8f+bzIZ0c+O/L5I59XuuZj5BEAAAAAEIiRxxTGyCOAZIsceQzijkyWlpaaSz+xXk/l5eVJQUGBM2dHPn/k8yKfHfnsyOePfF7pmi9jv/32ozymqDr1GlAeASSV/vGgPPojnx357Mjnj3xe5LMjn12i8jHymMIYeQSQbPrHg/Loj3x25LMjnz/yeZHPjnx2icrHPo8AAAAAgECURwAAAABAIMojAAAAACAQ5REAAAAAEIjyCAAAAAAIxNFWUxhHWwWQbHq0tfCjrbpHX/OTlZVlLktKSsyln1ivp3Jzc6WwsNCZsyOfP/J5kc+OfHbk80c+r3TNx8gjAAAAACAQI48pjJFHAMkWOfIYpKrnj4oU7XqK83R5kc+OfHbk80c+L/LZVfd8jDwCAAAAAAJRHgEAAAAAgSiPAAAAAIBAlEcAAAAAQKAaUx477bOPnHDC8XL1VVfKn+/+kzz+2KMyccJT5lLndbnerusBAAAAAHZXrctj165d5Ibrr5N33n5L/vHyS3LVFVdI927dzFGDFi5cKHPnzjWXOq/L9XZdT9fX++n9AQAAAACVPFXHaaeeIp/N+ly6dekib0yd6iz9Ve9evaT9nnvKvO/nydx53ztLE0dL3wXnXyBHH3WkfPvtt/Lu9Bny8SefyP/+9z9nDX977bWXHH7YYTKgfz/p0aOHvP/+B/LEU0/KnDlznTUSh1N1AEg2PVQ3p+rwRz478tmRzx/5vMhnRz67ROWrVHn8wx23y4jhw+XJp56SstC916//WRYuWiwd2u8pzZo1C82vl82bNsuW4mLZtHmT7NWxo9Svn2PuO3nyZFkb8MNXxcUXXRiaLpIPP/xInn72Gfnqq6+dWyquZ8+D5LxzzpUjjzxCHn3ssdD0uHNLYlAeASSb/vEIL4/uHxM/WVlZ5rKkpMRc+on1eio3N1cKCwudOTvy+SOfF/nsyGdHPn/k80rXfJXabHX27NkybMTxsmbNWmnYsIG0atXKFMemTfeQtWvXOmv9atu2bWa9Tvvs7SyJjzv/+AcZM3q03HzrrTLu8surVByV3l8fRx9PH1cfHwAAAABqokqNPFZU/exseXj8Q+b6peMuk1+2bDHXY+nWW26WY44+Wi6/4gqZ/d0cZ2nsdO/WVR584AGzGettt9/uLI0vRh4BJFvkyGOQqm4OEyna9RSbHXmRz458duTzRz4v8tlV93wJOWCOlsXzxow1UzyK4/HHj5CTTzpJbrjxxrgUR6WPq49/0kknmucDAAAAgJqkWhxt9YKxY+WZZ5+VWZ9/4SyJD338Z0PPo88HAAAAADVJpcpjvXp1nWu/qpWZKbVr13bmdle/fn0z9Bl+v4Y5OZ7H0Xl3iDRafQ89VNq2bSsvTHrBWRJfk0LPo8+nzwsAAAAANUWtRo0b3+Zcj0pGhsj+++0vh/bpI40bN5J+xxwjffocLMVbiqVr166hYtVGeh50kDRu1EgGDOhv7nPYYX2lRYsW0r1bd1MOO3bsKHvuuadk1cqSgQMHyKGhIta6VSvZd999ZenSZeYAO9EaNOhYcwSiCU8/7SyJr81FRTJwwABZv2G9fP3NN87S+NAj1G7etMGZA4DEy8zMNEdcq1u3rmzcuNFZ6k/XV2V6KO5yxHo9pV9U/vLLL86cHfn8kc+LfHbksyOfP/J5pWu+mB0wR0uhHlBhy5ZfZPv2kt12rtQiadvXcfv27eZS79ukcWPzomhxLN2xwyyP5oW65uqrpEvnzjJ67PnOkvib+NSTMnfePLnn3vucJfHBAXMAJNvOrUY4YI4f8tmRz458/sjnRT478tklKl+lRh6PPPJI6dGju7Rs0VJ69eophx9+mDQOlb+2bdrI/vvvb8qibtqZu8cecuzAAZKf31w6tG8vrVu3lk6d9pHmzvwBPXpIRqjVDh18nCmKmzdvljahxzjllJNlj6ZNzYeV5StWOM9sp8WxW7duMvmll50l8XfO2WfLnDlzGHkEUO3pN4+MPPojnx357Mjnj3xe5LMjn12i8iXkVB3aXGvXzpLi4q3Okp1atmghm0KFUUuj0vWiad/hdN/Dxx59RAYNOk5Wrl7tLI2fls2by9tvvyUXXXyJfDpzprM0Phh5BJBs+nuZkUd/5LMjnx35/JHPi3x25LNLVL6dlbKCwg9s43egHF1HW7Kup08aXhzd+6xctUpKS0rMeg0aNDAFU7mPH80BdLTALV26VEaNOt1ZEl/6PPp88S6OAAAAAJBKKjzyqJutDhs6NHSZEWrAhdKsWZ5s2lxkCmGL5s1l3bp1klkrU4q3bpXly5fLYX0Pk4LCUFPeUSYbN2+W2lm1ZEmofOU3y5ft27dJ/Zwc81gNQ+VRRyBXrVptDoCzaNEiad++vXw2a1bgMK2ed/GO3/9ezr/ggrierqPPwb3lySeekJtvvVVefXWKszR+GHkEkGw7v8j7deRRv/0sj7uZyw5n33U/+ntfRbPZjK4TtJ7KCf09KSoqcubsyOePfF7ksyOfHfn8kc8rXfNVarNVHRFUkQfG0Q8Z7uihPo9mc0cc9T6R64dr2LBhaN3iXQfRqahbb7lZjjn6aLn8iivMCf1jrXu3rvLgAw/I++9/ILfdfruzNL4ojwCSLbI8BnG3Fqns5jCRol1PsdmRF/nsyGdHPn/k8yKfXXXPV6kD5hw/4nhpltdMevY8SFq1aiW9Qpda/o4+8kjZurU4NN9TOnfe35yeo0PHjub2jIxMGXTsQGkeWtb30EOkVctW0r17d2nZsoXsvffe5kA7nfbZR5o2bWJu11a8Zu1a51mDffDBh9KpUye5+qqrZPWaNTJ//nznlqrTkc17//pXef+DD8yoY6JwwBwAyabfPHLAHH/ksyOfHfn8kc+LfHbks0tUvoQcMCeSbpaqCgsLzaUraHQyGhdfeKFcfPFF8uGHH8nTzz4jX331tXNLxWk5Pu+cc+XII4+QRx97PDQ95tySGIw8Akg2/eaRkUd/5LMjnx35/JHPi3x25LNLVL6dlTLBtDRGFkelm7hG8wKW59HHH5dRZ55ptvd9esIEee7ZZ82pNfbaay9njfLperr+c6HiqffXx9HHS3RxBAAAAIBUkpSRx0Tp2rWLDB0yRPr3728O5vPzzz/LwoULzVFeN2zYYPav1KO+6jkq9bQhHTp0kKZNm8qq1atl+vTp8sabb8qcOXOdR0s8Rh4BJJt+88jIoz/y2ZHPjnz+yOdFPjvy2SUqX1JGHhNFi9/df/6LHDvoODnl1NPkvgcekNnffWdeDC2KXbp0kY4dOpp5Xa6363q6vt4vmcURAAAAAFJJtR55THeMPAJINv1yjZFHf+SzI58d+fyRz4t8duSzS1S+aj3yCAAAAACIDUYeUxgjjwCSTb95DB95dL+J9KOn9VAlJSXm0k+s11N6JG/bwdjCkc8f+bzIZ0c+O/L5I59XuuZj5BEAAAAAEIiRxxTGyCOAZIsceQxS1X0pIkW7nmKfFS/y2ZHPjnz+yOdFPrvqno+RRwAAAABAIMojAAAAACAQ5REAAAAAECih5bFjhw7ONQAAAABAOklYedTi+PD4hyiQAAAAAJCGElIe3eK4eMkSCiQAAAAApKG4l8fw4jjussspkAAAAACQhuJ6nsfI4lhSUiJZWVky/qEHZc927eTScZfJgoULnbURifM8Akg2Pc9T+Hke3fM++dHf8Up/35cn1uup3NxcKSwsdObsyOePfF7ksyOfHfn8kc8rXfPFbeTRVhyVXjICCQAAAADpJS4jj37FMZy2WUYgy8fII4Bkixx5DOKOTJaWlppLP7FeT+Xl5UlBQYEzZ0c+f+TzIp8d+ezI5498XumaL+OCCy70LY9vTJ3qXIteNMXRFa8COXTwYOdafFXm9akIyiOAZNM/HpRHf+SzI58d+fyRz4t8duSzS1S+jKVLl5ryWLt2bbNg+/bt5vLlf/xD7rn3PnM9WhUpjq54FMhX/vVPadGihTMXH3+f9II8NH68MxcflEcAyaZ/PCiP/shnRz478vkjnxf57Mhnl6h8uzZb/eMf7jAfEK659jqZ+NSTMnfevAqVx8oUR1csC2SXzvvLC5MmyahRZ8ic0M8Qa/F+/HCURwDJpn88KI/+yGdHPjvy+SOfF/nsyGeXqHwxOWBOVYqj0vX1fnp/fRx9vMrq16+/LFiwIG7FLt6PDwAAAACpqMrlsarF0RWrAtm/3zEyfcZ7zlzsxfvxAQAAACAVVak8xqo4uqpaIHWT0o4dO8p7M2Y4S2Ir3o8PAAAAAKmq0uUx1sXRVZUCySarAAAAABAflSqP8SqOrsoWSDZZBYD40h3oy5v0AGg62W4Ln2K9nk6ZmZnW5eFTrJ832vV0Ip93inY9ncjnnaJdTyfyeado19OJfN4p2vV0Ip93inY9nVIpX4XLY7yLo6uiBTLem5R27dzZPP6MGdOdJQAAAABQc9Rq1LjxbXqlf79+pl2+8840OX7ECFm7dq3MnPmZWSncz+vXh5bPlFGnny6HHdZX3nr7bdmxY4dza+xoloqcvuM3I38jTZs0kQfHP+wsia2RI0eax38oTo9vU79+jmzetMGZA4DE02879fdx3bp1ZePGjVJWVlbupPRvgh7a23a7O8V6PZ2ys7OlqKjIeps7Rft4sV5PJ/J5p2jX04l83ina9XQin3eKdj2dyOedol1PJ/J5p2jX0ymV8lVqs1UtclrotNhpwdMPFrFU0eKo2GQVAAAAAOKn0gfMiVeBrExxjPcmpWyyCgAAAKCmq3R5VLEukJUpjuqYfv3MUVDnzvveWRJb8X58AAAAAEh1VSqPKlYFsrLFUbHJKgAAAADEV5XLo6pqgaxKcWSTVQAAAACIv4ylS5eaw+nUrl3bLNi+fbu5fPkf/5B77r3PXI9WZU7jUZXiqC4bN07OGHW6Mxcfq1atkhNOOtmZS5zc3HxZuXyxMwcAiafndKpXr540atRIli1b5iz1p+srPTpbeWK9nsrLy5OCggJnzo58/sjnRT478tmRzx/5vNI1X8YFF1y481isFm9Mnepci15FCmRVi6MaOniwcy2+KvNaVBXlEUCy6R8PyqM/8tmRz458/sjnRT478tklKl9G67btfMtjZUVTIGNRHKs7yiOAZNM/HpRHf+SzI58d+fyRz4t8duSzS1S+uJRHVV6BpDhGh/IIINn0j0d4edQ/YOXJzNy5K72eWLg8GRkZ5tI9EbEffTz3xMRBcnJyzEmUy0M+f+TzIp8d+ezI5498XumaL27lUdkKJMUxepRHAMkWWR6DJOqbTxu+OfYinx357Mjnj3xe5LOr7vl2VtQ40WKoBVGLohZGiiMAAAAApKe4lkcVWSApjgAAAACQfuJeHlV4gaQ4AgAAAED6SUh5VG6BpDgCAAAAQPpJWHlUFEcAAAAASE8JLY8AAAAAgPREeQQAAAAABIrreR5RNZznEUCy6Xmews/z6J73yY+ekknpeX3LE+v1VG5urhQWFjpzduTzRz4v8tmRz458/sjnla75GHkEAAAAAARi5DGFMfIIINkiRx6DuCOTpaWl5tJPrNdTeXl5UlBQ4MzZkc8f+bzIZ0c+O/L5I59XuubL7Nixo3MVAAAAAAC7zBdfmCTHDRrkzAIAAAAA4JVx3/33lx177LEyZOiwqHbYTDUjTz1Vjjsu8eX3rbfelskvv+zMxQebrQJINt1shc1W/ZHPjnx25PNHPi/y2ZHPLlH5Mjp36Vr20YcfyAUXXiSfzZrlLE4f11x9lQwcOFBefXWKsyT+jj9+hEybNk3uufc+Z0l8UB4BJJv+8aA8+iOfHfnsyOePfF7ksyOfXaLyZRx2xBFlU155RZ58aoI8NH68s7hqskMfNM44Y5Qpde3bt5faWVmydOlSWbhwkXz/w/fy/N8nSVFRkbN21Vx7zdXSpXNnOW/MWGdJ/D094SmZM3cu5RFAtad/PCiP/shnRz478vkjnxf57Mhnl6h8mddde62UlZWFyt0SZ1HVtG7dSl5+abKMHTNGli9fLnfeeZeMu+xy+fcrr8rmos0y8rTT5PUpr8rQIUOkVmamHHjggWbT03PPOcfse9myRQvnkQAAAAAAqSLz4N69ZevWrbJt2zZnUdXc89e/Sv369eW4IUPl6muulVenTJFPZ86UZ559Vn538y0ybPgIef311+WPf7hDvvn6K3n26Yly9tlnyeDBx8nvf3+bvP7aFLnowgukdu3aziMCAAAAAJItY9DgwWVPPfGE3H7HHfLm1LecxdHbt1MnGTp0iHTr2lXq1Kkr3bp1lbHnXyCff/GFs4bd3nvvLU2bNJE5c+bIluJisywjQ2T48OFyzVVXyaJFi+TCiy+W4uKt5jY/bLYKAPGjm62Eb7bqbsbiJysry1wGHYAt1uup3NxcKSwsdObsyOePfF7ksyOfHfn8kc8rXfNlzpkz17lacaeecrJMfvEF2XfffeWb//xHJr/0kow688zA4qh++ukn+eLLL3cVR1VWJjJlymtywkknS8OGDeWqK690bgEAAAAAJFOtRo0b36b7J37w4Yfy31Chi1aXzvvL/ffdJ7fdfrv89a/3yKzPP5f5P/4oa9asddaovOJQody0aZOMGT1annnmWQl1Sl99+x4q+c2amc1jE+WE40fImrVrZebMz5wl8VG/fo5s3rTBmQOAxMvMzDTfPtatW1c2btxo9pEvb1I7duwwO9jbbnenWK+nU3Z2tjkYm+02d4r28WK9nk7k807RrqcT+bxTtOvpRD7vFO16OpHPO0W7nk7k807RrqdTKuXLNLdUgh7wRjc5feWVV50lsVUn9EGldp06ssMJDwAAAABInkqXR610pn3qjooxpgfLGXPeeTJvbuU3qQUAAAAAxE6ly+Pkl16Wjh07yr333CPHHH2UNGnc2Lml6n4zcqTsueeeMvOz+G4WCgAAAACITqXL45IlS+TCCy+SXr16ygP33y/jH3pI9t9vP+fWqnnu+efl7j//RS695BIZO2a0sxQAAAAAkCyVLo9q/877mx04b7zpJjnz7LPl+x9+cG6pur9PmiS33HqbXH7ZZWaEEwAAAACQPFUqj4f1PUymvvVWpc4PGY133nnH7FfZtWsXZwkAAAAAIBmqVB5/+t//pPP+++86iWSsdezYwVwuWbLUXNpouYyFpk2byvEjRsgN118nzz49UWbNnCmv/Ouf8qe77pSzzzrL/JwAAAAAUFNltG7bruyzTz+R2++4o8IjiNn16smLL0ySgsJCue76G2TdunWiB1/VorVjR1mFN2PVfSaPPvro0GNkSKd99pEjjzxCPvzwI7ny6qudNbyuufoq6dqli5w3ZqyzpGJycnLk3HPOkbPPPktmf/ut/Pe//5Vly1eYfTpzc3OlTZs20qFDezm4d2/57rs58tD48aZgzpk7V+659z7nUeIjNzdfVi5f7MwBQOLVqlVL6oV+1zdq1EiWLVtm5svjfplYUlJiLv3Eej2lv7MLQ3+PykM+f+TzIp8d+ezI5498Xumab9fIY0bov4raUlwsp59xpqxdu1amT3tHXpr8onz0wQfywqRJ8sD990leXq6zZrD27feUJx5/TM499xwZdOxAKd5aLNeHCml5xbEq6tSpY0rj21PflMP69pUxofJ5/oUXyZ//eo9MeuEF+fiTT+TVKVPk4UcekWuvu16GDh8hS5YuMWW5S6isAgAAAEBNsmvk8Y47/iBvTJ3qLK44PbXGoYccIr/88ot8OvNTufGGG2SfvfeWv4TKmBYxP61atpRTTzlFRo0aJfPn/yCXjLtMNm/e7Nwa7OSTTpRbb7lFPvn0U3l4/MMyZ9485xY7PYfkKSefLOePHWNGOO9/8EGZEiqJ0W79qgfv+b/f3iTzQs/DyCOA6i5y5DGIOzJZWlpqLv3Eej2Vl5cnBQUFzpwd+fyRz4t8duSzI58/8nmla76YlcdItTIz5YwzzjCn29DNWT/+5OPQ5c/mtoYNG4RKYyuzOWiHDh1ky5Yt8vAjj5ojrEbzAkbaZ5995MrLL5cjjjhc3n//A3l3+nT5dvZsWbx4Z/GqW7euOejOAT16yMiRI6Vx6EPQhIkTzSlBtmwpNutUhG6a27HjXvK///3PWRIflEcAyaZ/PCiP/shnRz478vkjnxf57Mhnl6h8GZ27dC376MMP5IILL5LPZs1yFseOFrcDQ6Wte4/upjA2a9ZM6tfPNrcVFf0i06a/K9PemSa/hApkVfXseZBcc9XVu47OunHjRlmxcqXZfzIzVGZ1m90XXnxRnnzyKVm/YYNZJ5VRHgEkm/7xoDz6I58d+ezI5498XuSzI59dovJl3P/AA2UDBw6UocOGy/bt253F6U13Km3Xrp3Zj3KPpk1lwYIF5iA4ixYtSqufkfIIINn0jwfl0R/57MhnRz5/5PMinx357BKVL/O0U0+V++67v9oUR6VHI/rmm2/k3/9+RSZMfFree/8DcxTV6vQzAgAAAEAiZY48fZQ50T8AAAAAAH4ydZNOAAAAAADKs+s8jwAAAAAA+KE8AgAAAAACmfM8OteRYjjaKoBk06OthR9tVY/4Vh49LZLasWOHufSToSfMDSkrK/9PkD6erhO0nsrJyZGioiJnzo58/sjnRT478tmRzx/5vNI1H+UxhVEeASRbZHkMkqhDhdtwqHUv8tmRz458/sjnRT676p5vZ0UFAAAAAKAclEcAAAAAQCDKIwAAAAAgEOURAAAAABCI8himVmamjBgxXG65+WZ55OHxcvddd8rFF10oe+yxh7MGAAAAANRMlEfHkYcfLq9NeVX+cPvtMmTwcdK4UWPpccABctGFF8rbU9+Uy8aNk7p16zprAwAAAEDNkvn0hKfkkosvdmZrnvr168uf7rpTxo9/SBYtXiznjRkjh/Q9TM446yw5bvAQ6T9woDz3/PNy5hlnyL/+8bJ069bVuScAAAAA1BwZEyZMLBs+fJgMGzFCli9f4SxOH3l5uVJQUOjMVYxupvrww+OlV8+ecvef/ywv/+Ofzi1ebdq0kfvvu1fatm0rp486QxYsWODcEj+c5xFAsul5nsLP8+ie98lPVlaWuSwpKTGXfmK9nsrNzZXCwvL/HpDPH/m8yGdHPjvy+SOfV7rmy2jbbs+y11+bIl9//Y387pZbnMUVM3TwYOda7LwxdapzrXxXX3mlvDNtmsyZO9dZEr07fv97Oe64QTJm7FiZ/d0cZ6m/7NAHqCefeELym+fLaSN/I+vXr3duiQ/KI4BkozySLxz5/JHPi3x25LMjn79UypfRum27Mt3H784//lEGDx4iK1evdm6K3iv/+qe0aNHCmau6VatWyQknnezMle+aq6+SEcOHy7nnjZaFixY5S4ONHTPa7M946bhxMuvzL5ylwXJycuTlyS/K9Bkz5J5773OWxgflEUCyRZbHIG65LC0tNZd+Yr2eysvLk4KCAmfOjnz+yOdFPjvy2ZHPH/m80jWfOWDOW2+9LYsXL5ZLL73ULKyILp33l44dO8rYseebfQWrOunj6OPp40aradOmMuGpJ6V9+z2dJeUbfd65Mi70s151zTUVKo6qqKhIVleiYAMAAABAOjPlcUdZmTzy6GMybNhQadm8ubkhWv369Tf7/82ZN89ZUjX6OPp4+rjRmj17tnz//ffy4qRJMujYY52lXjpqeN89f5XLL7tMrr/hRvnoo4+dWwAAAAAA5dl1qo6333mnUqOP/fsdI9NnvOfMxYY+nj5utLZv3y6XX3GlvPTSy/KXP98tz0ycIAP695dWLVua02voKKYeUfbN11+THj16yDnnnmv2kwQAAAAARGe38zyOf/iRCo0+upusvjdjhrMkNmbMmF7hTVdLd+yQe++/X0aPGSsFhYWmRL419U35YtZn8sKkSXLySSfKSy//Q045baR8O/s7514AAAAAgGjsVh6nvftuhUYfY73JqmvuvO8rvOmq68uvvpJrr7teDj7kUBlxwgnmfI39BwyU/gOPlYcfeUTWrVvnrAkAAAAAiNZu5VE98NBDUY8+xmOTVVe0m65mZGQ413anm7IuWrRYvvtujqwNODoRAAAAAKB8nvI4I1Tafv75Zzn+hOOdJXbx2mTVVZlNVwEAAAAA8eEpj/36HWNOffH6G286S+zitcmqqyqbrgIA4kPP+1TepCcV1sl2W/gU6/V0yszMtC4Pn2L9vNGupxP5vFO06+lEPu8U7Xo6kc87RbueTuTzTtGupxP5vFO06+mUSvk85fGKyy6T115/PfBk0PHcZNUVzaarZWVlzrXY0K1gm+XlSbduXWXPPfeU2rVrO7cAAAAAQM2V0bptu13ta+CAAeYopcNGHF9ueezaubNMmvR3OX3UKDNCGC+6yaoeKXXUqDN8Rzivvebq0Hqd5bwxY50llZMZao2DBw+WSy6+SNq2bessFdm6datMfukleWrCRFm/fr1Z9vSEp2TO3Llyz733mfl4yc3Nl5XLFztzAJB4+i1jvXr1pFGjRoFfKipdX5WWlppLP7FeT+Xl5UlBwD7u5PNHPi/y2ZHPjnz+yOeVrvl2G3kcd+klUY06HtOvn9mkNJ7FUbmbrurz+YnFyGO7du3kub/9TW64/jrz8//m9FHSu88hctyQIfK7m2+RHt27m3NEnnTSic49AAAAAKBm2VUejxs0yGym+fgTTzpL/CVik1VXtEddraxBxx4rr/zrn6HCvFSOGzxEHnv8CZn3/fdmxHHFipXy9jvvyFnnnCt//OOdcsN118l99/x1VxMHAAAAgJrClEfdZPPyy8ZFNeqom6zqUVD1aKiJ4B51VZ831o466ki5+093yYMPjZcbbvqt/LJli3OL1xtTp8rpo86QAw88UA444ABnKQAAAADUDGafx6FDhsgf/3BH4L6O6rJx4+SMUac7c4nz90kvyEPjxztzv7rm6qukf7/+csqpp5Zb/iId0qePPPLweBn/8MMy8elnnKXB9tprL3lm4gR55dVX2ecRQLWnW1qwz6M/8tmRz458/sjnRT478tklKl9G23Z7lr3+2hT56uuv5eZbbnUW+xs6eLBzLfF09C9Sk8aN5bm/PSsbNmyU8y+4QLYUFzu3+NPRwycee1See/55M+pYUTryePRRR8n9DzzgLIkPyiOAZNM/HpRHf+SzI58d+fyRz4t8duSzS1S+jKeffqZs+PBhZtRx6dKlzuL0kp+fL3975hnZuGmjXH3NteV+wBl1+ulmtPKll1+Wu//8F2dpxeXl5YbexEJnLj4ojwCSTf94UB79kc+OfHbk80c+L/LZkc8uUfkyW7duZU5Dka7FUa1Zs0bOOvts2VpcLP98+SW59JJLpGnTps6tOx3cu7c8+sjDcv1115rNX6tSHFW8iyMAAAAApJLdzvOY7rQhX3D+WPnNyJHSpEkTWblylRQWFsree+8l2dnZ8s0334SK48Py5VdfOfdIbYw8Akg2/b0aPvLofhPpJysry1yWlJSYSz+xXk/l5uaa3/nlIZ8/8nmRz458duTzRz6vdM2323ke050Oqz762OPSr/8AueTScTJt2jtmiPfhRx6VocNHyDnnjU6b4ggAAAAAqaRajTxWN4w8Aki2yJHHIH77SESK9XqKfVa8yGdHPjvy+SOfF/nsqnu+ajXyCAAAAACID8ojAAAAACAQ5REAAAAAEIjyCAAAAAAIRHkEAAAAAASiPAIAAAAAAiWkPHbs0EEuGzdO7rrzj+ZS5+PlissvlyefeFwevP9+83y/+7//k2uuulLOPeccOfSQQyS/WTNnTQAAAABAtOJeHocPGyav/PtfcvRRR0pmZqa51HldHg8vvfSSdO/WTQ466EBp0by57NWxg3Tt2lVGDB8m9993r7w77R359OOP5MnHH5Oxo8+TLp33l4wM584AAAAAAKuM1m3blTnXYy4/P1/envqmTHz6GXlo/HhnqZjRx9HnnSuDBg+RNWvWOEtj55STT5Ibb7hBTj1tpCxctMhZulOTxo2lVatW0qNHDzn88MOkz8EHS3Fxsbzy6qvy1ISJsn79emfN5MvNzZeVyxc7cwCQeHqS4Hr16kmjRo1k2bJl5kTF5dEvCdWOHTvMpZ8M51u7srLy/wTp4+k6QeupnJwcKSoqcubsyOePfF7ksyOfHfn8kc8rXfPFtTyOOv10GTtmtPQbMNBZ8qsZ704zZW3SCy84S2Lr6QlPSVZWlpx97rmhH9pZaFGvXl3pf0w/ufTSS8yHoskvvSSPPva4/PLLL84ayUN5BJBskeUxiK6vSktLzaWfWK+n9Hd4QUGBM2dHPn/k8yKfHfnsyOePfF7pmi9TS5ZtGnnqqc4qlZeXlysrVqxw5nany/X2ePndLbfIvvvuK8cOPNZZYldcvFXemDpVRpxwotx73/1y0oknynPPPhPXbAAAAACQbjI//+JLiZxatmolbdq2cVapvEWLFsv+++8vjRo1dJbspPO6XG+Pl+XLV5hRxAsvON9ZUr6SkhJ5cfJkOXXkSDNiOenvf5c2bar+GgAAAABAdZD56GOPSeS00me0sKKmvPaaGWG84/Y7pFXLlmaZXuq8Ltfb42nSpBdkr732ksMPO8xZEmzFipVy+qgzZMXy5fLk44+bzVoBAAAAoKbbuWdlHN1w403SunUreWvqm/Lh+++ZS53X5fG2ctUqeXf6dDnxxBOcJdH5ZcsWuf6GG6VJk8Zy6cUXO0sBAAAAoOaKe3mc9/33csqpp8nvb789VMaahC7vMPO6PBHeeOMNOfzww6WWcwSiaK1Zu1buuvtuOeOMMzyb3QIAAABATRPz8rjfvvtaD8Bz8kknm9tPPukk6+16v3iY+dlnUq9uXenTp4+zJHpTprxmTt0xeNBxzhIAAAAAqJniPvKYbFu2FMvs2bPlqKOOdJZUzFtvvSXDhw9z5gAAAACgZrKe51FHAufMnSv33Hufs6Tq2rffU6a88ooMP/4EWbw4secu/L/f3iT777efnHn2Oc6S6B03aJDc/ae7pGfvg80RWROJ8zwCSDY9z1P4eR7d8z750aNVq6Dfl7FeT+Xm5kphYaEzZ0c+f+TzIp8d+ezI5498Xumar9qPPKrVq1eHXvQ8Z65ilq9YLhkZGdIsr3L3BwAAAIDqoFajxo1vc67vcsLxI8wBY2bO/MxZUnV6sJzTf/MbeeHFF2XDhg3O0sRo27atDB06RB5/4klnSfRKS0vl3HPOlnemvWtKaCLVr58jmzcl9rUCgHCZmZnm28e6devKxo0bpaysrNxJ7dixw/zutN3uTrFeT6fs7GwpKiqy3uZO0T5erNfTiXzeKdr1dCKfd4p2PZ3I552iXU8n8nmnaNfTiXzeKdr1dEqlfDVi5DGa4WA/OkSsL1TuHk2dJQAAAABQ89SI8ti4cWNz1NTKyMnJMZutbti40VkCAAAAADVPZuQpM3TaN06nzUiWxo0bmc2tKiO/WTNzuWbNWnMJAAAAADVR5udffCmR03PP/z2m+zsmm448VnY/y+b5+eZyxYoV5hIAAAAAaqLMRx97TGzTpzNnOqvERt06dc2lnrA/0fbt1En++9NPzlzF9D74YPlh/nyzsygAAAAA1FQJ2ecxMyNDbrzhenNdL3U+URo0aCAHHnigfPTxx86S6On5zE479RR5882pzhIAAAAAqJkSUh4vvfRS6dmzpzlVhl7qfKIccfjh5vLzWZ+by4o4+6wzzYmxp7z2mrMEAAAAAGqmjNZt2+08kUecHNy7tzz5xOMyYeJEefCh8XLFZZfJ6NHnyfkXXCiff/GFs1b8PPboI2Z/xxtuvMlZEp0O7dvLP15+SV56+WW5+89/cZYmVm5uvqxcvtiZA4DE0y0w6tWrZ75IW7ZsmZkvj54TUgWdIinW66nc3FxzeqXykM8f+bzIZ0c+O/L5I59XuuaL68ij/qD3/PUv8u2338r48Q+bZQ+NH2/mdbneHk9777239D30UJkwYaKzJDqtWrWUxx97VBYvXiz33ne/sxQAAAAAaq64jTzqfo3PPD1ROnToICecdPJubVlL4yv/+qcsXLhQzj1vtOwoi8/g55/v/pM51ca5o8c4S4LpiOPTEyeYU3uMHjtWCgrKb/nxxMgjgGSLHHkM4o5MBh1kLNbrqby8vNDv7AJnzo58/sjnRT478tmRzx/5vNI1X9xGHseNu1R69Ogh11x7nWeYVed1ud4er/0fu3buLMcNGiTP/O1vzpLy6dDsGaNGyd+ff06WLl0qZ5x1duhNSl5xBAAAAIBUEpfyqPs5jhk92uzn6Ldfoy6fOPFpGTtmtFk/lmplZsrNt9wsX331lbz//gfOUrt69erK0MGDZcorr8hFF15g9ss8b8xY2bRpk7MGAAAAACDm5dG2n6OfeO3/OGrUKOnYoUOoQN7iLPlVk8aNpUvn/eU3I0fKw+Mfkk8++khuuulGmT5jugweOkxenDw5qh1XAQAAAKAmiXl5POfss6SsrEyuve76wH0Z9fZrr7/BrH9u6H6x0LJ5c7ls3KVSWLhOLrrwIrnvnr/KE48/Jv/6x8sya+an8uEH78uTTzwhAwb0l2++/lrOPuccOeKoo+See++TzZs3O48CAAAAAAgX8/L48COPykUXXyJr1q51lpRvzZo1Zv0HHhrvLKma00aOlG9nz5Yff/xRamXVksJ1P8v8H34w52q88qqrZcDAY6Xv4UfI2PMvkKcmPi1z530fKq/OnQEAAAAAVnE/zyMqj6OtAkg2PdoaR1v1Rz478tmRzx/5vMhnRz67ROWL29FWAQAAAADVByOPKYyRRwDJpt88ho88ut9E+tHTHqmgA4/Fej2lB16LPDVUJPL5I58X+ezIZ0c+f+TzStd8jDwCAAAAAAIx8pjCGHkEkGyRI49BqrovRaRo11Pss+JFPjvy2ZHPH/m8yGdX3fNl9D38iN3KY506deS///2vM2enJ9bv1rWbMxd/3835ToqLtzpzXpF5SktKpJYz1BoPQXlihfIIINn0jwfl0R/57MhnRz5/5PMinx357BKVL6OwsHC38vjll1/J1ddcI+s3bHCWeO25557y2quvOHPxN/z4E2TxYv8SFZlnxYoV0qpVK2cu9oLyxArlEUCy6R8PyqM/8tmRz458/sjnRT478tklKt9uI49tWreWRx95OLActWvXTl6f8qr89v9+J6tXr3aW7tSjRw8ZOHCAzJs7N/SkWbJlyxbJz8+Xz7/4XJo1ayZ77LGHNG7cWJo2bSpLliyV/fffTz7++GP59NOZziP8qnnz5nLnH/8gw0YcH1p3ibPUKzxPZmam/OGO2+Wm3/6fOYdkLEWbJ1YojwCSTf94UB79kc+OfHbk80c+L/LZkc8uMflE/h/BfuefjteYegAAAABJRU5ErkJggg==;" vertex="1" parent="1">
          <mxGeometry x="-50" y="20" width="911" height="427" as="geometry" />
        </mxCell>
      </root>
    </mxGraphModel>
  </diagram>
</mxfile>
